<svg width="361" height="58" viewBox="0 0 361 58" fill="none" xmlns="http://www.w3.org/2000/svg">
    <path d="M329.056 56.56c-.266 0-.4-.133-.4-.4l.16-54.96c0-.213.107-.32.32-.32l14.96-.08c2.934-.053 5.6.64 8 2.08a16.13 16.13 0 0 1 5.84 5.84c1.44 2.4 2.16 5.067 2.16 8v22.96c0 3.093-.746 5.92-2.24 8.48a17.012 17.012 0 0 1-6 6c-2.506 1.493-5.333 2.267-8.48 2.32l-14.32.08zm9.36-9.84h4.96c1.974 0 3.627-.693 4.96-2.08 1.387-1.387 2.08-3.04 2.08-4.96V16.64c0-1.707-.64-3.173-1.92-4.4-1.226-1.28-2.693-1.893-4.4-1.84l-5.6.08-.08 36.24zM296.983 56.56c-.214 0-.32-.133-.32-.4l.08-54.96c0-.213.106-.32.32-.32h25.68c.213 0 .32.133.32.4v8.96c0 .213-.107.32-.32.32h-16.4v12.48h16.4c.213 0 .32.107.32.32l.08 9.04c0 .213-.107.32-.32.32h-16.48v14h16.48c.213 0 .32.133.32.4v9.12c0 .213-.107.32-.32.32h-25.84zM281.866 56.56c-.267 0-.4-.133-.4-.4l.08-54.96c0-.213.106-.32.32-.32h8.96c.213 0 .32.107.32.32l.08 54.96c0 .267-.107.4-.32.4h-9.04zM246.903 56.56c-.266 0-.4-.133-.4-.4l.16-54.96c0-.213.107-.32.32-.32h15.36c4.907 0 8.774 1.493 11.6 4.48 2.88 2.987 4.32 7.04 4.32 12.16 0 3.787-.747 7.067-2.24 9.84-1.493 2.773-3.44 4.907-5.84 6.4a14.56 14.56 0 0 1-7.84 2.24h-6.08v20.16c0 .267-.133.4-.4.4h-8.96zm9.36-30.24h6.08c1.707 0 3.174-.8 4.4-2.4 1.28-1.653 1.92-3.787 1.92-6.4 0-2.08-.56-3.787-1.68-5.12-1.12-1.333-2.666-2-4.64-2l-6.08.08v15.84zM226.026 57.36c-2.826 0-5.44-.72-7.84-2.16a17.007 17.007 0 0 1-5.76-5.92c-1.386-2.453-2.08-5.147-2.08-8.08l.16-40c0-.213.107-.32.32-.32h8.96c.214 0 .32.107.32.32v40c0 1.813.56 3.36 1.68 4.64 1.174 1.227 2.587 1.84 4.24 1.84 1.707 0 3.12-.613 4.24-1.84 1.174-1.28 1.76-2.827 1.76-4.64v-40c0-.213.107-.32.32-.32h8.96c.214 0 .32.107.32.32l.16 40c0 2.987-.72 5.707-2.16 8.16a15.703 15.703 0 0 1-5.68 5.84c-2.346 1.44-4.986 2.16-7.92 2.16zM190.908 57.36c-2.934 0-5.6-.72-8-2.16-2.347-1.493-4.214-3.467-5.6-5.92-1.387-2.453-2.08-5.2-2.08-8.24l.08-24.96c0-2.933.666-5.6 2-8 1.386-2.453 3.253-4.4 5.6-5.84 2.4-1.493 5.066-2.24 8-2.24 2.933 0 5.573.72 7.92 2.16 2.346 1.44 4.213 3.387 5.6 5.84 1.386 2.4 2.08 5.093 2.08 8.08v3.68c0 .213-.107.32-.32.32h-8.96c-.214 0-.32-.107-.32-.32v-3.68c0-1.76-.587-3.28-1.76-4.56-1.12-1.28-2.534-1.92-4.24-1.92-1.92 0-3.387.667-4.4 2-1.014 1.28-1.52 2.773-1.52 4.48v24.96c0 1.973.56 3.573 1.68 4.8 1.173 1.227 2.586 1.84 4.24 1.84 1.706 0 3.12-.667 4.24-2 1.173-1.387 1.76-2.933 1.76-4.64v-3.68c0-.213.106-.32.32-.32h9.04c.213 0 .32.107.32.32v3.68c0 3.04-.72 5.787-2.16 8.24-1.387 2.453-3.254 4.427-5.6 5.92-2.347 1.44-4.987 2.16-7.92 2.16zM156.257 57.36c-2.933 0-5.6-.72-8-2.16-2.346-1.493-4.213-3.467-5.6-5.92-1.386-2.453-2.08-5.2-2.08-8.24l.08-24.96c0-2.933.667-5.6 2-8 1.387-2.453 3.254-4.4 5.6-5.84 2.4-1.493 5.067-2.24 8-2.24 2.934 0 5.574.72 7.92 2.16 2.347 1.44 4.214 3.387 5.6 5.84 1.387 2.4 2.08 5.093 2.08 8.08v3.68c0 .213-.106.32-.32.32h-8.96c-.213 0-.32-.107-.32-.32v-3.68c0-1.76-.586-3.28-1.76-4.56-1.12-1.28-2.533-1.92-4.24-1.92-1.92 0-3.386.667-4.4 2-1.013 1.28-1.52 2.773-1.52 4.48v24.96c0 1.973.56 3.573 1.68 4.8 1.174 1.227 2.587 1.84 4.24 1.84 1.707 0 3.12-.667 4.24-2 1.174-1.387 1.76-2.933 1.76-4.64v-3.68c0-.213.107-.32.32-.32h9.04c.214 0 .32.107.32.32v3.68c0 3.04-.72 5.787-2.16 8.24-1.386 2.453-3.253 4.427-5.6 5.92-2.346 1.44-4.986 2.16-7.92 2.16zM64.931 57.36c-2.88 0-5.52-.72-7.92-2.16a17.497 17.497 0 0 1-5.68-5.84c-1.386-2.453-2.08-5.147-2.08-8.08V37.6c0-.267.134-.4.4-.4h8.96c.214 0 .32.133.32.4v3.68c0 1.76.587 3.28 1.76 4.56 1.174 1.227 2.587 1.84 4.24 1.84 1.654 0 3.067-.64 4.24-1.92 1.174-1.28 1.76-2.773 1.76-4.48 0-1.973-1.28-3.68-3.84-5.12-.853-.48-2.186-1.227-4-2.24-1.813-1.013-3.52-1.973-5.12-2.88-2.933-1.707-5.12-3.84-6.56-6.4-1.386-2.613-2.08-5.547-2.08-8.8 0-2.987.72-5.653 2.16-8 1.44-2.4 3.334-4.293 5.68-5.68a15.251 15.251 0 0 1 7.76-2.08c2.827 0 5.414.72 7.76 2.16a15.277 15.277 0 0 1 5.68 5.68c1.44 2.347 2.16 4.987 2.16 7.92v6.56c0 .213-.106.32-.32.32h-8.96c-.213 0-.32-.107-.32-.32l-.08-6.56c0-1.867-.586-3.387-1.76-4.56-1.173-1.173-2.56-1.76-4.16-1.76-1.653 0-3.066.64-4.24 1.92-1.173 1.227-1.76 2.693-1.76 4.4 0 1.76.374 3.227 1.12 4.4.747 1.173 2.107 2.293 4.08 3.36.267.16.774.453 1.52.88.8.373 1.654.827 2.56 1.36.907.48 1.707.907 2.4 1.28.747.373 1.2.613 1.36.72 2.667 1.493 4.774 3.333 6.32 5.52 1.547 2.133 2.32 4.773 2.32 7.92 0 3.04-.72 5.787-2.16 8.24-1.386 2.4-3.28 4.32-5.68 5.76-2.346 1.387-4.96 2.08-7.84 2.08zM36.534 56.56c-.266 0-.4-.133-.4-.4l.08-54.96c0-.213.107-.32.32-.32h8.96c.214 0 .32.107.32.32l.08 54.96c0 .267-.106.4-.32.4h-9.04zM.4 56.56c-.267 0-.4-.133-.4-.4L.16 1.2C.16.987.267.88.48.88L15.44.8c2.933-.053 5.6.64 8 2.08a16.135 16.135 0 0 1 5.84 5.84c1.44 2.4 2.16 5.067 2.16 8v22.96c0 3.093-.747 5.92-2.24 8.48a17.017 17.017 0 0 1-6 6c-2.507 1.493-5.333 2.267-8.48 2.32L.4 56.56zm9.36-9.84h4.96c1.973 0 3.627-.693 4.96-2.08 1.387-1.387 2.08-3.04 2.08-4.96V16.64c0-1.707-.64-3.173-1.92-4.4-1.227-1.28-2.693-1.893-4.4-1.84l-5.6.08-.08 36.24z" fill="#100335"/>
    <path d="M135.958 19.693c.714 1.992 1.307 4.028 2.042 6.337-.044-5.079-3.831-14.251-8.562-17.929-8.594-6.677-17.968-8.767-28.165-5.462-17.781 5.747-24.927 27.343-14.29 42.24 5.63 7.87 13.237 12.172 23.06 12.27 2.503.022 4.764-.613 7.179-1.434 4.094-1.39 7.969-2.999 11.382-5.593 1.285-.974 2.239-2.364 3.348-3.557l-.505-.57c-3.49 3.427-7.277 6.404-11.953 7.914-5.027 1.62-12.217 1.817-14.291.47 3.271 0 6.553.439 9.67-.087 6.86-1.149 12.513-4.433 15.992-10.77.703-1.27 1.592-2.452 2.273-3.733 3.402-6.37 2.722-13.036 1.415-19.746-.098-.536.143-1.138.231-1.708.395.45.977.843 1.163 1.369l.011-.011zM114.05 56.306c0 .11-.011.23-.022.34h-4.511v-.34h4.544-.011zm-3.71-34.02h.461v4.018l-.461.022v-4.04zM94.018 43.315c-.999-.93-1.624-2.244-3.27-2.397-.374-.033-.758-.734-1.033-1.194C83.535 29.238 87.85 14.1 98.64 8.398c.538-.285 1.153-.416 1.734-.613.121.219.253.438.373.645-1.328.898-2.689 1.74-3.962 2.715-1.273.974-2.535 2.025-2.546 3.951.263-.219.57-.415.8-.678 2.745-3.087 6.18-5.068 10.099-6.283 2.316-.712 2.92-.361 2.942 2.025.055 4.499 0 8.986.055 13.485.021 1.806.175 3.623.263 5.396-2.261.537-11.372 9.906-12.272 12.665.966-.504 1.768-.93 2.569-1.347.11.132.23.263.34.384-1.12 1.094-2.195 2.265-3.413 3.24-.22.175-1.186-.296-1.603-.69v.022zM109.33 50.1c-.055.372-.988.941-1.438.876-3.995-.57-7.617-2.058-10.735-4.685-.9-.755-1.031-1.543-.088-2.244 2.712-2.036 5.478-4.006 8.211-6.02.516-.383.999-.821 1.46-1.27.45-.438.867-.92 1.756-1.226v12.654s.11 0 .164.01c.11-.689.231-1.379.341-2.08h.406c0 1.325.11 2.66-.066 3.963l-.011.022zm4.127-.066c-.033.438-.867 1.051-1.405 1.139-.307.054-1.065-.745-1.109-1.215-.109-1.182.066-2.397-.208-3.645-.055 1.05-.121 2.112-.187 3.371-1.174-3.667-.878-12.358.483-15.806 1.164.176 1.581.81 1.515 1.993-.099 1.696-.077 3.404-.088 5.1-.011 1.642 0 3.273.231 4.948.131-.657.263-1.325.395-1.981.153 0 .296.021.45.021 0 2.025.088 4.061-.066 6.075h-.011zm1.196-2.55h-.483V36.965h.483v10.52zm14.796-5.134c-.625.854-1.547 1.478-2.326 2.212-1.932 3.02-5.061 4.29-8.2 5.45-4.039 1.5-4.138 1.358-3.951-2.9.11-2.43.142-4.86.23-7.28.022-.58.088-1.148.165-1.991 2.612 2.244 4.994 4.269 7.365 6.305.198-.175.395-.35.593-.515a462.138 462.138 0 0 0-1.822-2.846c2.008 1.292 3.578 2.299 5.148 3.317-1.79-2.146-3.579-4.28-5.368-6.425-.274-.329-.626-.635-.757-1.018-.856-2.518-2.854-3.93-4.907-5.375-.537-.383-.878-1.258-.998-1.97-.319-1.828-.571-3.678-.659-5.538-.055-1.227.395-2.474.318-3.69-.197-3.37-.417-6.753-.889-10.091-.318-2.222-.022-2.748 2.119-2.365 16.244 2.945 23.697 21.498 13.928 34.731l.011-.01z" fill="#100335"/>
</svg>
