<svg viewBox="0 0 18 19" fill="none" xmlns="http://www.w3.org/2000/svg">
<path d="M1.6875 1.625C1.53832 1.625 1.39524 1.68426 1.28975 1.78975C1.18426 1.89524 1.125 2.03832 1.125 2.1875V5.5625C1.125 5.71168 1.06574 5.85476 0.960248 5.96025C0.854758 6.06574 0.711684 6.125 0.5625 6.125C0.413316 6.125 0.270242 6.06574 0.164752 5.96025C0.0592632 5.85476 0 5.71168 0 5.5625V2.1875C0 1.73995 0.17779 1.31072 0.494257 0.994257C0.810725 0.67779 1.23995 0.5 1.6875 0.5L5.0625 0.5C5.21168 0.5 5.35476 0.559263 5.46025 0.664752C5.56574 0.770242 5.625 0.913316 5.625 1.0625C5.625 1.21168 5.56574 1.35476 5.46025 1.46025C5.35476 1.56574 5.21168 1.625 5.0625 1.625H1.6875ZM12.375 1.0625C12.375 0.913316 12.4343 0.770242 12.5398 0.664752C12.6452 0.559263 12.7883 0.5 12.9375 0.5H16.3125C16.7601 0.5 17.1893 0.67779 17.5057 0.994257C17.8222 1.31072 18 1.73995 18 2.1875V5.5625C18 5.71168 17.9407 5.85476 17.8352 5.96025C17.7298 6.06574 17.5867 6.125 17.4375 6.125C17.2883 6.125 17.1452 6.06574 17.0398 5.96025C16.9343 5.85476 16.875 5.71168 16.875 5.5625V2.1875C16.875 2.03832 16.8157 1.89524 16.7102 1.78975C16.6048 1.68426 16.4617 1.625 16.3125 1.625H12.9375C12.7883 1.625 12.6452 1.56574 12.5398 1.46025C12.4343 1.35476 12.375 1.21168 12.375 1.0625ZM0.5625 12.875C0.711684 12.875 0.854758 12.9343 0.960248 13.0398C1.06574 13.1452 1.125 13.2883 1.125 13.4375V16.8125C1.125 16.9617 1.18426 17.1048 1.28975 17.2102C1.39524 17.3157 1.53832 17.375 1.6875 17.375H5.0625C5.21168 17.375 5.35476 17.4343 5.46025 17.5398C5.56574 17.6452 5.625 17.7883 5.625 17.9375C5.625 18.0867 5.56574 18.2298 5.46025 18.3352C5.35476 18.4407 5.21168 18.5 5.0625 18.5H1.6875C1.23995 18.5 0.810725 18.3222 0.494257 18.0057C0.17779 17.6893 0 17.2601 0 16.8125L0 13.4375C0 13.2883 0.0592632 13.1452 0.164752 13.0398C0.270242 12.9343 0.413316 12.875 0.5625 12.875ZM17.4375 12.875C17.5867 12.875 17.7298 12.9343 17.8352 13.0398C17.9407 13.1452 18 13.2883 18 13.4375V16.8125C18 17.2601 17.8222 17.6893 17.5057 18.0057C17.1893 18.3222 16.7601 18.5 16.3125 18.5H12.9375C12.7883 18.5 12.6452 18.4407 12.5398 18.3352C12.4343 18.2298 12.375 18.0867 12.375 17.9375C12.375 17.7883 12.4343 17.6452 12.5398 17.5398C12.6452 17.4343 12.7883 17.375 12.9375 17.375H16.3125C16.4617 17.375 16.6048 17.3157 16.7102 17.2102C16.8157 17.1048 16.875 16.9617 16.875 16.8125V13.4375C16.875 13.2883 16.9343 13.1452 17.0398 13.0398C17.1452 12.9343 17.2883 12.875 17.4375 12.875ZM3.375 5.5625C3.375 5.41332 3.43426 5.27024 3.53975 5.16475C3.64524 5.05926 3.78832 5 3.9375 5C4.08668 5 4.22976 5.05926 4.33525 5.16475C4.44074 5.27024 4.5 5.41332 4.5 5.5625V13.4375C4.5 13.5867 4.44074 13.7298 4.33525 13.8352C4.22976 13.9407 4.08668 14 3.9375 14C3.78832 14 3.64524 13.9407 3.53975 13.8352C3.43426 13.7298 3.375 13.5867 3.375 13.4375V5.5625ZM5.625 5.5625C5.625 5.41332 5.68426 5.27024 5.78975 5.16475C5.89524 5.05926 6.03832 5 6.1875 5C6.33668 5 6.47976 5.05926 6.58525 5.16475C6.69074 5.27024 6.75 5.41332 6.75 5.5625V13.4375C6.75 13.5867 6.69074 13.7298 6.58525 13.8352C6.47976 13.9407 6.33668 14 6.1875 14C6.03832 14 5.89524 13.9407 5.78975 13.8352C5.68426 13.7298 5.625 13.5867 5.625 13.4375V5.5625ZM7.875 5.5625C7.875 5.41332 7.93426 5.27024 8.03975 5.16475C8.14524 5.05926 8.28832 5 8.4375 5C8.58668 5 8.72976 5.05926 8.83525 5.16475C8.94074 5.27024 9 5.41332 9 5.5625V13.4375C9 13.5867 8.94074 13.7298 8.83525 13.8352C8.72976 13.9407 8.58668 14 8.4375 14C8.28832 14 8.14524 13.9407 8.03975 13.8352C7.93426 13.7298 7.875 13.5867 7.875 13.4375V5.5625ZM10.125 5.5625C10.125 5.41332 10.1843 5.27024 10.2898 5.16475C10.3952 5.05926 10.5383 5 10.6875 5H11.8125C11.9617 5 12.1048 5.05926 12.2102 5.16475C12.3157 5.27024 12.375 5.41332 12.375 5.5625V13.4375C12.375 13.5867 12.3157 13.7298 12.2102 13.8352C12.1048 13.9407 11.9617 14 11.8125 14H10.6875C10.5383 14 10.3952 13.9407 10.2898 13.8352C10.1843 13.7298 10.125 13.5867 10.125 13.4375V5.5625ZM13.5 5.5625C13.5 5.41332 13.5593 5.27024 13.6648 5.16475C13.7702 5.05926 13.9133 5 14.0625 5C14.2117 5 14.3548 5.05926 14.4602 5.16475C14.5657 5.27024 14.625 5.41332 14.625 5.5625V13.4375C14.625 13.5867 14.5657 13.7298 14.4602 13.8352C14.3548 13.9407 14.2117 14 14.0625 14C13.9133 14 13.7702 13.9407 13.6648 13.8352C13.5593 13.7298 13.5 13.5867 13.5 13.4375V5.5625Z" fill="#212529"/>
</svg>
