<svg width="25" height="24" viewBox="0 0 25 24" fill="none" xmlns="http://www.w3.org/2000/svg">
<mask id="mask0_2004_570" style="mask-type:alpha" maskUnits="userSpaceOnUse" x="0" y="0" width="25" height="24">
<rect x="0.400146" width="24" height="24" fill="#D9D9D9"/>
</mask>
<g mask="url(#mask0_2004_570)">
<path d="M12.2751 20C12.3418 20 12.4085 19.9833 12.4751 19.95C12.5418 19.9167 12.5918 19.8833 12.6251 19.85L20.8251 11.65C21.0251 11.45 21.171 11.225 21.2626 10.975C21.3543 10.725 21.4001 10.475 21.4001 10.225C21.4001 9.95833 21.3543 9.70417 21.2626 9.4625C21.171 9.22083 21.0251 9.00833 20.8251 8.825L16.5751 4.575C16.3918 4.375 16.1793 4.22917 15.9376 4.1375C15.696 4.04583 15.4418 4 15.1751 4C14.9251 4 14.6751 4.04583 14.4251 4.1375C14.1751 4.22917 13.9501 4.375 13.7501 4.575L13.4751 4.85L15.3251 6.725C15.5751 6.95833 15.7585 7.225 15.8751 7.525C15.9918 7.825 16.0501 8.14167 16.0501 8.475C16.0501 9.175 15.8126 9.7625 15.3376 10.2375C14.8626 10.7125 14.2751 10.95 13.5751 10.95C13.2418 10.95 12.921 10.8917 12.6126 10.775C12.3043 10.6583 12.0335 10.4833 11.8001 10.25L9.92514 8.4L5.55014 12.775C5.50014 12.825 5.46264 12.8792 5.43764 12.9375C5.41264 12.9958 5.40014 13.0583 5.40014 13.125C5.40014 13.2583 5.45014 13.3792 5.55014 13.4875C5.65014 13.5958 5.7668 13.65 5.90014 13.65C5.9668 13.65 6.03347 13.6333 6.10014 13.6C6.1668 13.5667 6.2168 13.5333 6.25014 13.5L9.65014 10.1L11.0501 11.5L7.67514 14.9C7.62514 14.95 7.58764 15.0042 7.56264 15.0625C7.53764 15.1208 7.52514 15.1833 7.52514 15.25C7.52514 15.3833 7.57514 15.5 7.67514 15.6C7.77514 15.7 7.8918 15.75 8.02514 15.75C8.0918 15.75 8.15847 15.7333 8.22514 15.7C8.2918 15.6667 8.3418 15.6333 8.37514 15.6L11.7751 12.225L13.1751 13.625L9.80014 17.025C9.75014 17.0583 9.71264 17.1083 9.68764 17.175C9.66264 17.2417 9.65014 17.3083 9.65014 17.375C9.65014 17.5083 9.70014 17.625 9.80014 17.725C9.90014 17.825 10.0168 17.875 10.1501 17.875C10.2168 17.875 10.2793 17.8625 10.3376 17.8375C10.396 17.8125 10.4501 17.775 10.5001 17.725L13.9001 14.35L15.3001 15.75L11.9001 19.15C11.8501 19.2 11.8126 19.2542 11.7876 19.3125C11.7626 19.3708 11.7501 19.4333 11.7501 19.5C11.7501 19.6333 11.8043 19.75 11.9126 19.85C12.021 19.95 12.1418 20 12.2751 20ZM12.2501 22C11.6335 22 11.0876 21.7958 10.6126 21.3875C10.1376 20.9792 9.85847 20.4667 9.77514 19.85C9.20847 19.7667 8.73347 19.5333 8.35014 19.15C7.9668 18.7667 7.73347 18.2917 7.65014 17.725C7.08347 17.6417 6.61264 17.4042 6.23764 17.0125C5.86264 16.6208 5.63347 16.15 5.55014 15.6C4.9168 15.5167 4.40014 15.2417 4.00014 14.775C3.60014 14.3083 3.40014 13.7583 3.40014 13.125C3.40014 12.7917 3.46264 12.4708 3.58764 12.1625C3.71264 11.8542 3.8918 11.5833 4.12514 11.35L9.92514 5.575L13.2001 8.85C13.2335 8.9 13.2835 8.9375 13.3501 8.9625C13.4168 8.9875 13.4835 9 13.5501 9C13.7001 9 13.8251 8.95417 13.9251 8.8625C14.0251 8.77083 14.0751 8.65 14.0751 8.5C14.0751 8.43333 14.0626 8.36667 14.0376 8.3C14.0126 8.23333 13.9751 8.18333 13.9251 8.15L10.3501 4.575C10.1668 4.375 9.9543 4.22917 9.71264 4.1375C9.47097 4.04583 9.2168 4 8.95014 4C8.70014 4 8.45014 4.04583 8.20014 4.1375C7.95014 4.22917 7.72514 4.375 7.52514 4.575L4.00014 8.125C3.85014 8.275 3.72514 8.45 3.62514 8.65C3.52514 8.85 3.45847 9.05 3.42514 9.25C3.3918 9.45 3.3918 9.65417 3.42514 9.8625C3.45847 10.0708 3.52514 10.2667 3.62514 10.45L2.17514 11.9C1.8918 11.5167 1.68347 11.0958 1.55014 10.6375C1.4168 10.1792 1.3668 9.71667 1.40014 9.25C1.43347 8.78333 1.55014 8.32917 1.75014 7.8875C1.95014 7.44583 2.22514 7.05 2.57514 6.7L6.10014 3.175C6.50014 2.79167 6.94597 2.5 7.43764 2.3C7.9293 2.1 8.43347 2 8.95014 2C9.4668 2 9.97097 2.1 10.4626 2.3C10.9543 2.5 11.3918 2.79167 11.7751 3.175L12.0501 3.45L12.3251 3.175C12.7251 2.79167 13.171 2.5 13.6626 2.3C14.1543 2.1 14.6585 2 15.1751 2C15.6918 2 16.196 2.1 16.6876 2.3C17.1793 2.5 17.6168 2.79167 18.0001 3.175L22.2251 7.4C22.6085 7.78333 22.9001 8.225 23.1001 8.725C23.3001 9.225 23.4001 9.73333 23.4001 10.25C23.4001 10.7667 23.3001 11.2708 23.1001 11.7625C22.9001 12.2542 22.6085 12.6917 22.2251 13.075L14.0251 21.25C13.7918 21.4833 13.521 21.6667 13.2126 21.8C12.9043 21.9333 12.5835 22 12.2501 22Z" fill="#DEE6C5"/>
</g>
</svg>
