<svg width="25" height="24" viewBox="0 0 25 24" fill="none" xmlns="http://www.w3.org/2000/svg">
<mask id="mask0_2004_265" style="mask-type:alpha" maskUnits="userSpaceOnUse" x="0" y="0" width="25" height="24">
<rect x="0.800049" width="24" height="24" fill="#D9D9D9"/>
</mask>
<g mask="url(#mask0_2004_265)">
<path d="M6.80005 19H9.80005V14C9.80005 13.7167 9.89588 13.4792 10.0875 13.2875C10.2792 13.0958 10.5167 13 10.8 13H14.8C15.0834 13 15.3209 13.0958 15.5125 13.2875C15.7042 13.4792 15.8 13.7167 15.8 14V19H18.8V10L12.8 5.5L6.80005 10V19ZM4.80005 19V10C4.80005 9.68333 4.87088 9.38333 5.01255 9.1C5.15422 8.81667 5.35005 8.58333 5.60005 8.4L11.6 3.9C11.95 3.63333 12.35 3.5 12.8 3.5C13.25 3.5 13.65 3.63333 14 3.9L20 8.4C20.25 8.58333 20.4459 8.81667 20.5875 9.1C20.7292 9.38333 20.8 9.68333 20.8 10V19C20.8 19.55 20.6042 20.0208 20.2125 20.4125C19.8209 20.8042 19.35 21 18.8 21H14.8C14.5167 21 14.2792 20.9042 14.0875 20.7125C13.8959 20.5208 13.8 20.2833 13.8 20V15H11.8V20C11.8 20.2833 11.7042 20.5208 11.5125 20.7125C11.3209 20.9042 11.0834 21 10.8 21H6.80005C6.25005 21 5.77922 20.8042 5.38755 20.4125C4.99588 20.0208 4.80005 19.55 4.80005 19Z" fill="#DEE6C5"/>
</g>
</svg>
