<svg width="25" height="24" viewBox="0 0 25 24" fill="none" xmlns="http://www.w3.org/2000/svg">
<mask id="mask0_2004_1198" style="mask-type:alpha" maskUnits="userSpaceOnUse" x="0" y="0" width="25" height="24">
<rect x="0.800049" width="24" height="24" fill="#D9D9D9"/>
</mask>
<g mask="url(#mask0_2004_1198)">
<path d="M4.80005 19V10C4.80005 9.68333 4.87088 9.38333 5.01255 9.1C5.15422 8.81667 5.35005 8.58333 5.60005 8.4L11.6 3.9C11.95 3.63333 12.35 3.5 12.8 3.5C13.25 3.5 13.65 3.63333 14 3.9L20 8.4C20.25 8.58333 20.4459 8.81667 20.5875 9.1C20.7292 9.38333 20.8 9.68333 20.8 10V19C20.8 19.55 20.6042 20.0208 20.2125 20.4125C19.8209 20.8042 19.35 21 18.8 21H15.8C15.5167 21 15.2792 20.9042 15.0875 20.7125C14.8959 20.5208 14.8 20.2833 14.8 20V15C14.8 14.7167 14.7042 14.4792 14.5125 14.2875C14.3209 14.0958 14.0834 14 13.8 14H11.8C11.5167 14 11.2792 14.0958 11.0875 14.2875C10.8959 14.4792 10.8 14.7167 10.8 15V20C10.8 20.2833 10.7042 20.5208 10.5125 20.7125C10.3209 20.9042 10.0834 21 9.80005 21H6.80005C6.25005 21 5.77922 20.8042 5.38755 20.4125C4.99588 20.0208 4.80005 19.55 4.80005 19Z" fill="white"/>
</g>
</svg>
