<svg width="25" height="24" viewBox="0 0 25 24" fill="none" xmlns="http://www.w3.org/2000/svg">
<mask id="mask0_2004_1711" style="mask-type:alpha" maskUnits="userSpaceOnUse" x="0" y="0" width="25" height="24">
<rect x="0.199707" width="24" height="24" fill="#D9D9D9"/>
</mask>
<g mask="url(#mask0_2004_1711)">
<path d="M12.1997 17C12.483 17 12.7205 16.9042 12.9122 16.7125C13.1039 16.5208 13.1997 16.2833 13.1997 16V12C13.1997 11.7167 13.1039 11.4792 12.9122 11.2875C12.7205 11.0958 12.483 11 12.1997 11C11.9164 11 11.6789 11.0958 11.4872 11.2875C11.2955 11.4792 11.1997 11.7167 11.1997 12V16C11.1997 16.2833 11.2955 16.5208 11.4872 16.7125C11.6789 16.9042 11.9164 17 12.1997 17ZM12.1997 9C12.483 9 12.7205 8.90417 12.9122 8.7125C13.1039 8.52083 13.1997 8.28333 13.1997 8C13.1997 7.71667 13.1039 7.47917 12.9122 7.2875C12.7205 7.09583 12.483 7 12.1997 7C11.9164 7 11.6789 7.09583 11.4872 7.2875C11.2955 7.47917 11.1997 7.71667 11.1997 8C11.1997 8.28333 11.2955 8.52083 11.4872 8.7125C11.6789 8.90417 11.9164 9 12.1997 9ZM12.1997 22C10.8164 22 9.51637 21.7375 8.29971 21.2125C7.08304 20.6875 6.02471 19.975 5.12471 19.075C4.22471 18.175 3.51221 17.1167 2.98721 15.9C2.46221 14.6833 2.19971 13.3833 2.19971 12C2.19971 10.6167 2.46221 9.31667 2.98721 8.1C3.51221 6.88333 4.22471 5.825 5.12471 4.925C6.02471 4.025 7.08304 3.3125 8.29971 2.7875C9.51637 2.2625 10.8164 2 12.1997 2C13.583 2 14.883 2.2625 16.0997 2.7875C17.3164 3.3125 18.3747 4.025 19.2747 4.925C20.1747 5.825 20.8872 6.88333 21.4122 8.1C21.9372 9.31667 22.1997 10.6167 22.1997 12C22.1997 13.3833 21.9372 14.6833 21.4122 15.9C20.8872 17.1167 20.1747 18.175 19.2747 19.075C18.3747 19.975 17.3164 20.6875 16.0997 21.2125C14.883 21.7375 13.583 22 12.1997 22Z" fill="white"/>
</g>
</svg>
