<svg width="25" height="24" viewBox="0 0 25 24" fill="none" xmlns="http://www.w3.org/2000/svg">
<mask id="mask0_2004_1782" style="mask-type:alpha" maskUnits="userSpaceOnUse" x="0" y="0" width="25" height="24">
<rect x="0.199951" width="24" height="24" fill="#D9D9D9"/>
</mask>
<g mask="url(#mask0_2004_1782)">
<path d="M12.2 17C12.4833 17 12.7208 16.9042 12.9125 16.7125C13.1041 16.5208 13.2 16.2833 13.2 16V12C13.2 11.7167 13.1041 11.4792 12.9125 11.2875C12.7208 11.0958 12.4833 11 12.2 11C11.9166 11 11.6791 11.0958 11.4875 11.2875C11.2958 11.4792 11.2 11.7167 11.2 12V16C11.2 16.2833 11.2958 16.5208 11.4875 16.7125C11.6791 16.9042 11.9166 17 12.2 17ZM12.2 9C12.4833 9 12.7208 8.90417 12.9125 8.7125C13.1041 8.52083 13.2 8.28333 13.2 8C13.2 7.71667 13.1041 7.47917 12.9125 7.2875C12.7208 7.09583 12.4833 7 12.2 7C11.9166 7 11.6791 7.09583 11.4875 7.2875C11.2958 7.47917 11.2 7.71667 11.2 8C11.2 8.28333 11.2958 8.52083 11.4875 8.7125C11.6791 8.90417 11.9166 9 12.2 9ZM12.2 22C10.8166 22 9.51662 21.7375 8.29995 21.2125C7.08328 20.6875 6.02495 19.975 5.12495 19.075C4.22495 18.175 3.51245 17.1167 2.98745 15.9C2.46245 14.6833 2.19995 13.3833 2.19995 12C2.19995 10.6167 2.46245 9.31667 2.98745 8.1C3.51245 6.88333 4.22495 5.825 5.12495 4.925C6.02495 4.025 7.08328 3.3125 8.29995 2.7875C9.51662 2.2625 10.8166 2 12.2 2C13.5833 2 14.8833 2.2625 16.1 2.7875C17.3166 3.3125 18.375 4.025 19.275 4.925C20.175 5.825 20.8875 6.88333 21.4125 8.1C21.9375 9.31667 22.2 10.6167 22.2 12C22.2 13.3833 21.9375 14.6833 21.4125 15.9C20.8875 17.1167 20.175 18.175 19.275 19.075C18.375 19.975 17.3166 20.6875 16.1 21.2125C14.8833 21.7375 13.5833 22 12.2 22ZM12.2 20C14.4333 20 16.325 19.225 17.875 17.675C19.425 16.125 20.2 14.2333 20.2 12C20.2 9.76667 19.425 7.875 17.875 6.325C16.325 4.775 14.4333 4 12.2 4C9.96662 4 8.07495 4.775 6.52495 6.325C4.97495 7.875 4.19995 9.76667 4.19995 12C4.19995 14.2333 4.97495 16.125 6.52495 17.675C8.07495 19.225 9.96662 20 12.2 20Z" fill="#DEE6C5"/>
</g>
</svg>
