<svg width="25" height="24" viewBox="0 0 25 24" fill="none" xmlns="http://www.w3.org/2000/svg">
<mask id="mask0_2004_422" style="mask-type:alpha" maskUnits="userSpaceOnUse" x="0" y="0" width="25" height="24">
<rect x="0.599609" width="24" height="24" fill="#D9D9D9"/>
</mask>
<g mask="url(#mask0_2004_422)">
<path d="M11.5996 13V16C11.5996 16.2833 11.6954 16.5208 11.8871 16.7125C12.0788 16.9042 12.3163 17 12.5996 17C12.8829 17 13.1204 16.9042 13.3121 16.7125C13.5038 16.5208 13.5996 16.2833 13.5996 16V13H16.5996C16.8829 13 17.1204 12.9042 17.3121 12.7125C17.5038 12.5208 17.5996 12.2833 17.5996 12C17.5996 11.7167 17.5038 11.4792 17.3121 11.2875C17.1204 11.0958 16.8829 11 16.5996 11H13.5996V8C13.5996 7.71667 13.5038 7.47917 13.3121 7.2875C13.1204 7.09583 12.8829 7 12.5996 7C12.3163 7 12.0788 7.09583 11.8871 7.2875C11.6954 7.47917 11.5996 7.71667 11.5996 8V11H8.59961C8.31628 11 8.07878 11.0958 7.88711 11.2875C7.69544 11.4792 7.59961 11.7167 7.59961 12C7.59961 12.2833 7.69544 12.5208 7.88711 12.7125C8.07878 12.9042 8.31628 13 8.59961 13H11.5996ZM5.59961 21C5.04961 21 4.57878 20.8042 4.18711 20.4125C3.79544 20.0208 3.59961 19.55 3.59961 19V5C3.59961 4.45 3.79544 3.97917 4.18711 3.5875C4.57878 3.19583 5.04961 3 5.59961 3H19.5996C20.1496 3 20.6204 3.19583 21.0121 3.5875C21.4038 3.97917 21.5996 4.45 21.5996 5V19C21.5996 19.55 21.4038 20.0208 21.0121 20.4125C20.6204 20.8042 20.1496 21 19.5996 21H5.59961Z" fill="white"/>
</g>
</svg>
