<svg width="25" height="24" viewBox="0 0 25 24" fill="none" xmlns="http://www.w3.org/2000/svg">
<mask id="mask0_2004_277" style="mask-type:alpha" maskUnits="userSpaceOnUse" x="0" y="0" width="25" height="24">
<rect x="0.600098" width="24" height="24" fill="#D9D9D9"/>
</mask>
<g mask="url(#mask0_2004_277)">
<path d="M11.6001 13V16C11.6001 16.2833 11.6959 16.5208 11.8876 16.7125C12.0793 16.9042 12.3168 17 12.6001 17C12.8834 17 13.1209 16.9042 13.3126 16.7125C13.5043 16.5208 13.6001 16.2833 13.6001 16V13H16.6001C16.8834 13 17.1209 12.9042 17.3126 12.7125C17.5043 12.5208 17.6001 12.2833 17.6001 12C17.6001 11.7167 17.5043 11.4792 17.3126 11.2875C17.1209 11.0958 16.8834 11 16.6001 11H13.6001V8C13.6001 7.71667 13.5043 7.47917 13.3126 7.2875C13.1209 7.09583 12.8834 7 12.6001 7C12.3168 7 12.0793 7.09583 11.8876 7.2875C11.6959 7.47917 11.6001 7.71667 11.6001 8V11H8.6001C8.31676 11 8.07926 11.0958 7.8876 11.2875C7.69593 11.4792 7.6001 11.7167 7.6001 12C7.6001 12.2833 7.69593 12.5208 7.8876 12.7125C8.07926 12.9042 8.31676 13 8.6001 13H11.6001ZM5.6001 21C5.0501 21 4.57926 20.8042 4.1876 20.4125C3.79593 20.0208 3.6001 19.55 3.6001 19V5C3.6001 4.45 3.79593 3.97917 4.1876 3.5875C4.57926 3.19583 5.0501 3 5.6001 3H19.6001C20.1501 3 20.6209 3.19583 21.0126 3.5875C21.4043 3.97917 21.6001 4.45 21.6001 5V19C21.6001 19.55 21.4043 20.0208 21.0126 20.4125C20.6209 20.8042 20.1501 21 19.6001 21H5.6001ZM5.6001 19H19.6001V5H5.6001V19Z" fill="#DEE6C5"/>
</g>
</svg>
